<?xml version="1.0" standalone="no"?>
<!DOCTYPE svg PUBLIC "-//W3C//DTD SVG 20010904//EN"
 "http://www.w3.org/TR/2001/REC-SVG-20010904/DTD/svg10.dtd">
<svg version="1.0" xmlns="http://www.w3.org/2000/svg"
 width="1254.000000pt" height="1254.000000pt" viewBox="0 0 1254.000000 1254.000000"
 preserveAspectRatio="xMidYMid meet">

<g transform="translate(0.000000,1254.000000) scale(0.100000,-0.100000)"
fill="#000000" stroke="none">
<path d="M7470 10276 c0 -47 151 -217 214 -241 40 -15 178 -42 731 -141 209
-37 263 -50 278 -66 27 -31 21 -41 -20 -35 -21 3 -239 39 -484 81 -245 42
-449 76 -453 76 -29 0 126 -169 189 -205 32 -19 109 -35 380 -79 187 -31 380
-63 429 -71 94 -15 100 -18 110 -51 6 -20 4 -20 -216 12 -438 65 -590 86 -595
80 -3 -3 25 -36 63 -74 49 -49 91 -79 144 -105 69 -33 93 -38 280 -63 113 -14
296 -38 408 -53 201 -27 202 -27 196 -7 -4 12 -79 172 -168 356 l-162 335 -54
12 c-30 7 -320 64 -645 128 -324 63 -598 117 -607 119 -10 2 -18 -1 -18 -8z"/>
<path d="M8977 9903 c29 -76 95 -238 146 -360 86 -209 94 -223 118 -223 32 0
852 100 856 104 2 2 -33 38 -79 81 -275 256 -634 451 -948 515 -54 11 -109 20
-123 20 l-24 0 54 -137z"/>
<path d="M9715 9304 c-272 -37 -882 -123 -951 -135 l-61 -11 23 -74 c13 -41
24 -81 24 -88 0 -7 -82 -65 -182 -129 -101 -63 -191 -122 -202 -130 -18 -13
-18 -17 12 -118 79 -266 83 -496 12 -815 -15 -71 -27 -130 -25 -132 1 -2 79
84 172 190 226 256 353 378 620 592 l73 58 37 -15 c21 -9 109 -45 196 -81 109
-45 159 -62 163 -53 3 7 37 95 77 197 l72 185 55 3 c30 2 58 6 62 10 3 4 -7
79 -22 167 -25 134 -27 162 -16 175 8 8 23 59 35 113 23 108 24 118 14 116 -5
-1 -89 -12 -188 -25z"/>
<path d="M5755 9091 c-183 -32 -361 -71 -488 -107 -130 -36 -247 -110 -567
-359 -566 -439 -752 -570 -895 -626 -69 -28 -70 -28 -30 -29 59 0 347 44 519
80 213 44 562 135 909 237 l158 46 119 176 c228 338 417 514 633 591 l52 19
-125 0 c-92 0 -167 -8 -285 -28z"/>
<path d="M6435 9060 c-254 -54 -511 -190 -680 -360 -66 -66 -68 -70 -42 -70
15 0 45 -11 66 -24 66 -42 273 -142 351 -170 101 -37 306 -89 470 -121 204
-39 434 -74 441 -67 3 4 35 44 72 89 113 137 243 245 413 342 111 64 217 106
359 141 l109 27 -84 49 c-115 67 -208 108 -321 138 -189 51 -317 51 -477 1
l-82 -26 -103 25 c-202 51 -340 58 -492 26z"/>
<path d="M7902 8725 c-152 -43 -319 -139 -450 -260 -227 -210 -397 -525 -523
-969 -21 -77 -41 -142 -44 -144 -3 -3 -5 173 -5 391 0 218 -4 398 -8 401 -5 3
-19 -21 -32 -52 -49 -119 -194 -416 -267 -549 -126 -228 -290 -463 -456 -653
l-66 -75 92 -3 c193 -7 545 37 829 103 302 70 526 148 753 260 186 92 252 144
326 258 255 387 326 850 187 1224 -17 45 -24 54 -56 64 -60 18 -220 21 -280 4z"/>
<path d="M9007 8120 c-3 -19 -11 -73 -16 -120 -32 -250 -142 -528 -288 -725
l-63 -85 50 -100 c85 -169 153 -266 300 -429 77 -86 446 -431 461 -431 3 0 7
35 8 78 4 181 58 380 131 481 19 28 19 29 -1 127 -11 54 -29 126 -41 159 -28
83 -100 201 -171 280 l-60 67 -2 111 c-3 135 -14 185 -71 302 -44 90 -104 176
-187 270 l-45 50 -5 -35z"/>
<path d="M10930 8090 c-52 -32 -131 -88 -175 -125 l-80 -66 -32 -112 c-35
-122 -86 -309 -103 -372 -8 -34 -25 -51 -105 -115 -121 -95 -236 -174 -449
-307 -240 -151 -273 -181 -329 -295 -71 -142 -79 -186 -84 -461 l-5 -238 124
79 c430 274 553 399 897 911 l119 176 88 54 c49 30 139 85 200 122 l111 69 51
127 c88 224 123 325 118 340 -3 8 16 42 44 77 28 35 50 66 50 70 0 3 -20 6
-45 6 -38 0 -60 -10 -162 -77 -170 -110 -306 -193 -316 -193 -6 0 -7 24 -4 58
l6 57 96 90 c95 89 95 90 95 138 0 26 -3 47 -7 47 -5 0 -51 -27 -103 -60z"/>
<path d="M8812 7941 c-225 -319 -540 -602 -902 -809 -351 -201 -838 -345
-1410 -418 -113 -14 -206 -27 -207 -28 -2 -1 32 -22 74 -46 190 -108 440 -290
585 -427 l57 -53 123 91 c164 121 498 343 628 417 58 33 170 95 250 139 80 44
185 108 233 142 111 79 254 221 329 327 76 107 188 324 231 449 35 102 83 292
75 300 -2 2 -32 -36 -66 -84z"/>
<path d="M3660 7896 c-186 -19 -197 -26 -369 -239 l-140 -172 44 -3 c30 -2 53
3 72 15 41 27 23 3 -81 -110 -50 -54 -92 -102 -94 -107 -2 -6 19 -10 48 -10
48 0 57 4 111 51 33 28 59 48 59 44 0 -4 -56 -67 -125 -140 -69 -73 -125 -135
-125 -139 0 -3 27 -6 59 -6 66 0 40 -17 368 242 97 77 294 198 321 198 5 0 12
-26 15 -57 5 -57 4 -60 -52 -148 -32 -49 -60 -95 -64 -101 -5 -9 20 -114 27
-114 2 0 59 66 126 147 l123 146 24 116 c34 168 72 385 67 390 -10 10 -303 8
-414 -3z"/>
<path d="M5812 6625 c-239 -52 -448 -205 -600 -440 -45 -68 -93 -172 -106
-227 -6 -27 -5 -28 39 -28 50 0 260 22 1010 104 270 30 542 60 605 66 63 7
116 13 118 15 6 6 -119 112 -234 198 -369 277 -598 363 -832 312z"/>
<path d="M6735 5990 c-159 -14 -527 -54 -945 -105 -201 -24 -453 -53 -560 -65
-107 -12 -201 -26 -209 -33 -8 -7 -107 -120 -220 -252 -221 -259 -410 -473
-645 -735 l-149 -165 207 -3 c113 -1 206 -6 206 -10 0 -4 -39 -18 -87 -31
-282 -77 -526 -167 -742 -274 -139 -70 -146 -75 -226 -162 -85 -94 -506 -574
-680 -777 -55 -64 -101 -112 -103 -108 -7 19 74 285 124 405 30 72 54 135 54
141 0 15 -285 278 -430 397 -63 52 -178 142 -255 200 l-140 107 -3 -35 c-5
-56 26 -212 53 -265 26 -50 45 -68 397 -360 120 -99 127 -107 121 -135 -3 -16
-7 -31 -8 -33 -2 -2 -46 33 -99 77 -115 96 -383 304 -398 310 -7 2 -9 -22 -6
-77 4 -62 11 -93 34 -139 26 -52 47 -73 219 -210 165 -131 190 -156 193 -182
2 -17 0 -31 -5 -31 -4 0 -82 56 -173 125 -91 69 -170 125 -175 125 -16 0 -1
-126 20 -178 15 -36 40 -60 156 -148 76 -58 141 -110 144 -115 4 -5 -54 -9
-145 -9 l-150 0 -310 -626 c-171 -345 -308 -629 -305 -632 3 -3 13 2 22 10 10
8 261 185 557 393 297 208 639 448 760 534 320 228 925 652 1191 836 245 169
403 282 765 545 280 204 722 520 940 671 323 225 1157 796 1344 919 l128 85
-38 7 c-67 13 -314 17 -429 8z"/>
<path d="M7075 5722 c-170 -115 -380 -257 -465 -316 -85 -59 -183 -127 -217
-149 -35 -23 -63 -45 -63 -48 0 -9 320 -107 420 -128 186 -38 387 -63 715 -86
115 -8 250 -22 300 -31 109 -19 217 -44 228 -54 4 -4 -52 -10 -125 -14 -146
-7 -261 -29 -383 -74 -68 -24 -114 -54 -310 -201 -375 -282 -859 -621 -885
-621 -6 0 4 28 21 63 18 34 58 117 90 185 l58 122 -76 83 c-170 183 -426 447
-430 443 -2 -2 -4 -44 -4 -93 -1 -61 4 -102 15 -128 11 -25 71 -94 162 -185
106 -108 143 -151 138 -163 -3 -9 -8 -17 -11 -17 -3 0 -68 61 -145 135 -77 74
-143 135 -147 135 -12 0 -21 -65 -14 -105 5 -30 28 -57 136 -159 98 -93 129
-127 124 -140 -8 -21 -10 -20 -148 102 -51 45 -97 82 -101 82 -12 0 -10 -84 3
-117 5 -15 53 -72 107 -125 l96 -97 -113 30 c-62 17 -117 27 -121 22 -14 -14
-554 -687 -585 -727 -26 -34 -27 -39 -10 -34 20 5 599 224 1310 493 198 75
437 163 530 195 278 95 477 170 525 197 56 33 265 175 390 267 178 130 366
298 470 421 l72 85 -33 42 c-199 258 -461 497 -760 698 -131 88 -363 207 -420
216 -31 5 -60 -12 -344 -204z"/>
<path d="M8580 4756 c-150 -155 -269 -256 -441 -373 -71 -48 -127 -88 -125
-90 3 -4 573 188 631 213 28 12 37 23 51 66 19 62 29 227 17 278 l-8 36 -125
-130z"/>
</g>
</svg>
